<svg width="26" height="21" viewBox="0 0 26 21" fill="none" xmlns="http://www.w3.org/2000/svg">
<path d="M25.1678 14.8137C25.1678 15.6387 24.2023 16.6529 23.4171 16.6529H22.7021C22.7029 11.6036 22.7029 5.94293 22.7021 4.93816C22.7018 4.90841 22.7073 4.87889 22.7182 4.85129C22.7291 4.82369 22.7452 4.79856 22.7656 4.77733C22.7861 4.7561 22.8104 4.73919 22.8373 4.72757C22.8642 4.71595 22.893 4.70985 22.9222 4.70961H24.9467C25.0683 4.70961 25.1679 4.81364 25.1679 4.93995L25.1678 14.8137ZM21.8688 18.4248C21.8688 18.947 21.6182 19.8219 19.9393 19.8219C16.6858 19.8219 14.6885 17.2229 14.6885 15.3589C14.6885 15.3589 14.6849 9.33183 14.6849 4.94006C14.6846 4.91027 14.69 4.8807 14.7009 4.85306C14.7119 4.82542 14.728 4.80025 14.7485 4.77901C14.769 4.75776 14.7934 4.74087 14.8204 4.72928C14.8473 4.7177 14.8762 4.71166 14.9054 4.71152H16.9323C17.054 4.71152 17.154 4.81487 17.154 4.94197V14.626C17.154 16.2261 18.3959 17.5239 19.927 17.5239H21.8699L21.8688 18.4248ZM25.1003 3.84111H22.7682C22.2724 3.84111 21.8686 4.26338 21.8686 4.78139V16.6539H19.9256C18.8536 16.6539 17.9848 15.7458 17.9848 14.6258V4.78139C17.9848 4.26215 17.5815 3.84067 17.0847 3.84067H14.7516C14.2547 3.84067 13.8516 4.26215 13.8508 4.78139C13.8496 9.07394 13.8544 15.3591 13.8544 15.3591C13.8548 18.6628 17.3982 20.6914 19.9386 20.6914C21.6426 20.6914 22.701 19.821 22.701 18.4188V17.5237H23.4167C24.6721 17.5237 26 16.131 26 14.8137V4.78139C26.0012 4.26215 25.5979 3.84111 25.1003 3.84111ZM11.3173 16.4429C11.3176 16.4726 11.3121 16.5021 11.3012 16.5297C11.2902 16.5573 11.2741 16.5824 11.2536 16.6036C11.2331 16.6248 11.2087 16.6417 11.1818 16.6532C11.1549 16.6648 11.1261 16.6708 11.0969 16.671H9.06997C8.94664 16.671 8.8478 16.5667 8.84835 16.4411V6.7569C8.84835 5.15696 7.60603 3.85914 6.07531 3.85914H4.13232V2.95806C4.13232 2.43691 4.38294 1.56091 6.0618 1.56091C9.31543 1.56091 11.3132 4.1598 11.3132 6.0239C11.3132 6.0239 11.3173 12.0803 11.3173 16.4429ZM1.05342 16.673C0.930093 16.6693 0.831473 16.5679 0.8329 16.4422V6.57023C0.8329 5.74507 1.79847 4.72955 2.58337 4.72955H3.29898C3.29788 11.9603 3.29788 15.6602 3.29898 16.4417C3.29954 16.5021 3.27661 16.5603 3.23522 16.6035C3.19383 16.6467 3.13734 16.6714 3.07813 16.6722L1.05342 16.673ZM12.1451 6.02401C12.1456 2.71999 8.60202 0.691406 6.06191 0.691406C4.35746 0.691406 3.29898 1.5617 3.29898 2.96399V3.85914H2.5837C1.32787 3.85914 0 5.25181 0 6.56923V16.6014C0 17.1207 0.403161 17.5421 0.899782 17.5421H3.23144C3.24594 17.5421 3.25835 17.5381 3.27284 17.5381C3.74937 17.5147 4.13111 17.1055 4.13111 16.6014V4.72887H6.07443C7.14598 4.72887 8.01523 5.63701 8.01523 6.75701V16.6015C8.01523 17.1208 8.4185 17.5423 8.91501 17.5423H11.2485C11.7454 17.5423 12.1483 17.1219 12.1483 16.6015C12.1501 12.2289 12.1451 6.02401 12.1451 6.02401Z" fill="white"/>
</svg>
